<svg width="183" height="24" viewBox="0 0 183 24" fill="none" xmlns="http://www.w3.org/2000/svg">
<path d="M22.544 17.648C22.752 17.648 22.912 17.744 23.024 17.936C23.152 18.128 23.216 18.392 23.216 18.728C23.216 19.352 23.064 19.848 22.76 20.216C21.992 21.144 21.216 21.864 20.432 22.376C19.648 22.872 18.72 23.12 17.648 23.12C16.608 23.12 15.72 22.84 14.984 22.28C14.264 21.72 13.576 20.76 12.92 19.4C12.392 18.312 11.976 17.512 11.672 17C11.368 16.472 11.064 16.096 10.76 15.872C10.472 15.648 10.112 15.512 9.68 15.464C9.616 15.8 9.432 16.856 9.128 18.632C9 19.432 8.92 19.92 8.888 20.096C8.728 21.072 8.408 21.824 7.928 22.352C7.448 22.864 6.72 23.12 5.744 23.12C4.672 23.12 3.72 22.808 2.888 22.184C2.072 21.544 1.44 20.664 0.992 19.544C0.544 18.408 0.32 17.12 0.32 15.68C0.32 12.992 0.784 10.672 1.712 8.72C2.656 6.768 3.968 5.28 5.648 4.256C7.344 3.216 9.296 2.696 11.504 2.696C13.04 2.696 14.328 2.928 15.368 3.392C16.408 3.856 17.176 4.496 17.672 5.312C18.184 6.128 18.44 7.048 18.44 8.072C18.44 8.968 18.224 9.848 17.792 10.712C17.376 11.56 16.744 12.312 15.896 12.968C15.048 13.624 14.016 14.112 12.8 14.432C13.568 14.64 14.16 14.976 14.576 15.44C14.992 15.904 15.408 16.584 15.824 17.48C16.272 18.44 16.712 19.144 17.144 19.592C17.592 20.04 18.104 20.264 18.68 20.264C19.192 20.264 19.68 20.096 20.144 19.76C20.608 19.408 21.192 18.816 21.896 17.984C22.088 17.76 22.304 17.648 22.544 17.648ZM6.368 15.44C5.824 15.44 5.448 15.312 5.24 15.056C5.048 14.8 4.952 14.512 4.952 14.192C4.952 13.808 5.072 13.504 5.312 13.28C5.568 13.056 5.856 12.944 6.176 12.944H6.776C7.032 11.376 7.272 10.024 7.496 8.888C7.704 7.848 8.376 7.328 9.512 7.328C10.424 7.328 10.88 7.736 10.88 8.552C10.88 8.728 10.872 8.864 10.856 8.96L10.136 12.944C11 12.896 11.784 12.688 12.488 12.32C13.208 11.952 13.776 11.44 14.192 10.784C14.624 10.128 14.84 9.384 14.84 8.552C14.84 7.544 14.496 6.752 13.808 6.176C13.12 5.6 12.112 5.312 10.784 5.312C9.216 5.312 7.84 5.704 6.656 6.488C5.488 7.256 4.576 8.408 3.92 9.944C3.264 11.464 2.936 13.32 2.936 15.512C2.936 16.536 3.04 17.416 3.248 18.152C3.456 18.888 3.712 19.44 4.016 19.808C4.32 20.176 4.608 20.36 4.88 20.36C5.088 20.36 5.256 20.256 5.384 20.048C5.528 19.84 5.64 19.504 5.72 19.04L6.368 15.44ZM23.7524 23.12C22.7604 23.12 21.9684 22.76 21.3764 22.04C20.7844 21.32 20.4884 20.376 20.4884 19.208C20.4884 17.928 20.7844 16.72 21.3764 15.584C21.9684 14.432 22.7524 13.512 23.7284 12.824C24.7204 12.12 25.7684 11.768 26.8724 11.768C27.2244 11.768 27.4564 11.84 27.5684 11.984C27.6964 12.112 27.8004 12.352 27.8804 12.704C28.2164 12.64 28.5684 12.608 28.9364 12.608C29.7204 12.608 30.1124 12.888 30.1124 13.448C30.1124 13.784 29.9924 14.584 29.7524 15.848C29.3844 17.688 29.2004 18.968 29.2004 19.688C29.2004 19.928 29.2564 20.12 29.3684 20.264C29.4964 20.408 29.6564 20.48 29.8484 20.48C30.1524 20.48 30.5204 20.288 30.9524 19.904C31.3844 19.504 31.9684 18.864 32.7044 17.984C32.8964 17.76 33.1124 17.648 33.3524 17.648C33.5604 17.648 33.7204 17.744 33.8324 17.936C33.9604 18.128 34.0244 18.392 34.0244 18.728C34.0244 19.368 33.8724 19.864 33.5684 20.216C32.9124 21.032 32.2164 21.72 31.4804 22.28C30.7444 22.84 30.0324 23.12 29.3444 23.12C28.8164 23.12 28.3284 22.944 27.8804 22.592C27.4484 22.224 27.1204 21.728 26.8964 21.104C26.0644 22.448 25.0164 23.12 23.7524 23.12ZM24.6164 20.696C24.9684 20.696 25.3044 20.488 25.6244 20.072C25.9444 19.656 26.1764 19.104 26.3204 18.416L27.2084 14C26.5364 14.016 25.9124 14.272 25.3364 14.768C24.7764 15.248 24.3284 15.888 23.9924 16.688C23.6564 17.488 23.4884 18.336 23.4884 19.232C23.4884 19.728 23.5844 20.096 23.7764 20.336C23.9844 20.576 24.2644 20.696 24.6164 20.696ZM35.2179 10.232C34.5459 10.232 34.0419 10.08 33.7059 9.776C33.3699 9.456 33.2019 9.016 33.2019 8.456C33.2019 7.896 33.4179 7.432 33.8499 7.064C34.2979 6.68 34.8499 6.488 35.5059 6.488C36.0979 6.488 36.5779 6.632 36.9459 6.92C37.3139 7.208 37.4979 7.616 37.4979 8.144C37.4979 8.784 37.2899 9.296 36.8739 9.68C36.4579 10.048 35.9059 10.232 35.2179 10.232ZM35.0259 23.12C33.9859 23.12 33.2259 22.752 32.7459 22.016C32.2819 21.28 32.0499 20.304 32.0499 19.088C32.0499 18.368 32.1379 17.448 32.3139 16.328C32.5059 15.192 32.7459 14.136 33.0339 13.16C33.1779 12.648 33.3699 12.296 33.6099 12.104C33.8499 11.912 34.2339 11.816 34.7619 11.816C35.5779 11.816 35.9859 12.088 35.9859 12.632C35.9859 13.032 35.8339 13.96 35.5299 15.416C35.1459 17.176 34.9539 18.368 34.9539 18.992C34.9539 19.472 35.0179 19.84 35.1459 20.096C35.2739 20.352 35.4899 20.48 35.7939 20.48C36.0819 20.48 36.4419 20.28 36.8739 19.88C37.3059 19.48 37.8819 18.848 38.6019 17.984C38.7939 17.76 39.0099 17.648 39.2499 17.648C39.4579 17.648 39.6179 17.744 39.7299 17.936C39.8579 18.128 39.9219 18.392 39.9219 18.728C39.9219 19.368 39.7699 19.864 39.4659 20.216C37.8819 22.152 36.4019 23.12 35.0259 23.12ZM42.4441 23.648C41.6121 23.648 40.9721 23.456 40.5241 23.072C40.0921 22.688 39.8761 22.256 39.8761 21.776C39.8761 21.36 40.0281 21 40.3321 20.696C40.6361 20.392 41.0841 20.24 41.6761 20.24C41.8841 20.24 42.1241 20.264 42.3961 20.312C42.6841 20.344 42.9001 20.368 43.0441 20.384C43.0281 19.968 42.9321 19.576 42.7561 19.208C42.5961 18.84 42.3881 18.488 42.1321 18.152C41.8761 17.8 41.6361 17.496 41.4121 17.24C40.9161 18.184 40.4201 18.968 39.9241 19.592C39.4441 20.216 38.9161 20.808 38.3401 21.368C38.0521 21.656 37.7481 21.8 37.4281 21.8C37.1721 21.8 36.9641 21.712 36.8041 21.536C36.6441 21.344 36.5641 21.112 36.5641 20.84C36.5641 20.52 36.6761 20.224 36.9001 19.952L37.2121 19.568C38.0921 18.48 38.7561 17.584 39.2041 16.88C39.4761 16.416 39.7961 15.8 40.1641 15.032C40.5321 14.248 40.8921 13.44 41.2441 12.608C41.5481 11.904 42.1801 11.552 43.1401 11.552C43.5881 11.552 43.9001 11.592 44.0761 11.672C44.2521 11.752 44.3401 11.88 44.3401 12.056C44.3401 12.152 44.3081 12.304 44.2441 12.512C44.1801 12.72 44.0921 12.928 43.9801 13.136C43.6921 13.712 43.5481 14.2 43.5481 14.6C43.5481 14.84 43.6281 15.104 43.7881 15.392C43.9641 15.68 44.2281 16.04 44.5801 16.472C45.0921 17.144 45.4761 17.72 45.7321 18.2C46.0041 18.664 46.1401 19.176 46.1401 19.736C46.1401 19.896 46.1241 20.12 46.0921 20.408C46.8761 20.104 47.7961 19.296 48.8521 17.984C49.0441 17.76 49.2601 17.648 49.5001 17.648C49.7081 17.648 49.8681 17.744 49.9801 17.936C50.1081 18.128 50.1721 18.392 50.1721 18.728C50.1721 19.336 50.0201 19.832 49.7161 20.216C48.9161 21.208 48.1481 21.888 47.4121 22.256C46.6921 22.608 45.7961 22.8 44.7241 22.832C44.0841 23.376 43.3241 23.648 42.4441 23.648ZM61.5423 17.648C61.7503 17.648 61.9103 17.744 62.0223 17.936C62.1503 18.128 62.2143 18.392 62.2143 18.728C62.2143 19.368 62.0623 19.864 61.7583 20.216C61.0223 21.064 60.2623 21.76 59.4783 22.304C58.7103 22.848 57.8303 23.12 56.8383 23.12C56.0223 23.12 55.4063 22.888 54.9903 22.424C54.5743 21.944 54.3663 21.256 54.3663 20.36C54.3663 19.912 54.4783 19.112 54.7023 17.96C54.9103 16.952 55.0143 16.256 55.0143 15.872C55.0143 15.616 54.9263 15.488 54.7503 15.488C54.5423 15.488 54.2463 15.76 53.8623 16.304C53.4783 16.832 53.0943 17.536 52.7103 18.416C52.3263 19.296 52.0143 20.224 51.7743 21.2C51.4703 22.48 50.7183 23.12 49.5183 23.12C49.0383 23.12 48.7183 22.952 48.5583 22.616C48.4143 22.264 48.3423 21.64 48.3423 20.744C48.3423 20.232 48.3503 19.824 48.3663 19.52L48.3903 17.6C48.3903 15.136 48.6383 12.568 49.1343 9.896C49.6463 7.224 50.3903 4.984 51.3663 3.176C52.3583 1.352 53.5423 0.439999 54.9183 0.439999C55.6543 0.439999 56.2463 0.759999 56.6943 1.4C57.1583 2.024 57.3903 2.84 57.3903 3.848C57.3903 5.464 56.9183 7.144 55.9743 8.888C55.0303 10.616 53.4943 12.64 51.3663 14.96C51.3183 15.792 51.2943 16.648 51.2943 17.528C51.8223 16.168 52.4063 15.064 53.0463 14.216C53.7023 13.352 54.3423 12.736 54.9663 12.368C55.6063 12 56.1903 11.816 56.7183 11.816C57.7583 11.816 58.2783 12.336 58.2783 13.376C58.2783 14 58.1023 15.128 57.7503 16.76C57.4463 18.152 57.2943 19.072 57.2943 19.52C57.2943 20.16 57.5263 20.48 57.9903 20.48C58.3103 20.48 58.6863 20.288 59.1183 19.904C59.5663 19.504 60.1583 18.864 60.8943 17.984C61.0863 17.76 61.3023 17.648 61.5423 17.648ZM54.4143 2.816C54.1263 2.816 53.8063 3.232 53.4543 4.064C53.1023 4.88 52.7583 5.992 52.4223 7.4C52.1023 8.792 51.8383 10.312 51.6303 11.96C52.6223 10.792 53.4383 9.52 54.0783 8.144C54.7343 6.768 55.0623 5.52 55.0623 4.4C55.0623 3.888 55.0063 3.496 54.8943 3.224C54.7823 2.952 54.6223 2.816 54.4143 2.816ZM63.2212 23.12C62.2292 23.12 61.4372 22.76 60.8452 22.04C60.2532 21.32 59.9572 20.376 59.9572 19.208C59.9572 17.928 60.2532 16.72 60.8452 15.584C61.4372 14.432 62.2212 13.512 63.1972 12.824C64.1892 12.12 65.2372 11.768 66.3412 11.768C66.6932 11.768 66.9252 11.84 67.0372 11.984C67.1652 12.112 67.2692 12.352 67.3492 12.704C67.6852 12.64 68.0372 12.608 68.4052 12.608C69.1892 12.608 69.5812 12.888 69.5812 13.448C69.5812 13.784 69.4612 14.584 69.2212 15.848C68.8532 17.688 68.6692 18.968 68.6692 19.688C68.6692 19.928 68.7252 20.12 68.8372 20.264C68.9652 20.408 69.1252 20.48 69.3172 20.48C69.6212 20.48 69.9892 20.288 70.4212 19.904C70.8532 19.504 71.4372 18.864 72.1732 17.984C72.3652 17.76 72.5812 17.648 72.8212 17.648C73.0292 17.648 73.1892 17.744 73.3012 17.936C73.4292 18.128 73.4932 18.392 73.4932 18.728C73.4932 19.368 73.3412 19.864 73.0372 20.216C72.3812 21.032 71.6852 21.72 70.9492 22.28C70.2132 22.84 69.5012 23.12 68.8132 23.12C68.2852 23.12 67.7972 22.944 67.3492 22.592C66.9172 22.224 66.5892 21.728 66.3652 21.104C65.5332 22.448 64.4852 23.12 63.2212 23.12ZM64.0852 20.696C64.4372 20.696 64.7732 20.488 65.0932 20.072C65.4132 19.656 65.6452 19.104 65.7892 18.416L66.6772 14C66.0052 14.016 65.3812 14.272 64.8052 14.768C64.2452 15.248 63.7972 15.888 63.4612 16.688C63.1252 17.488 62.9572 18.336 62.9572 19.232C62.9572 19.728 63.0532 20.096 63.2452 20.336C63.4532 20.576 63.7332 20.696 64.0852 20.696ZM93.9346 17.648C94.1426 17.648 94.3026 17.744 94.4146 17.936C94.5426 18.128 94.6066 18.392 94.6066 18.728C94.6066 19.352 94.4546 19.848 94.1506 20.216C93.3826 21.144 92.6066 21.864 91.8226 22.376C91.0386 22.872 90.1106 23.12 89.0386 23.12C87.9986 23.12 87.1106 22.84 86.3746 22.28C85.6546 21.72 84.9666 20.76 84.3106 19.4C83.7826 18.312 83.3666 17.512 83.0626 17C82.7586 16.472 82.4546 16.096 82.1506 15.872C81.8626 15.648 81.5026 15.512 81.0706 15.464C81.0066 15.8 80.8226 16.856 80.5186 18.632C80.3906 19.432 80.3106 19.92 80.2786 20.096C80.1186 21.072 79.7986 21.824 79.3186 22.352C78.8386 22.864 78.1106 23.12 77.1346 23.12C76.0626 23.12 75.1106 22.808 74.2786 22.184C73.4626 21.544 72.8306 20.664 72.3826 19.544C71.9346 18.408 71.7106 17.12 71.7106 15.68C71.7106 12.992 72.1746 10.672 73.1026 8.72C74.0466 6.768 75.3586 5.28 77.0386 4.256C78.7346 3.216 80.6866 2.696 82.8946 2.696C84.4306 2.696 85.7186 2.928 86.7586 3.392C87.7986 3.856 88.5666 4.496 89.0626 5.312C89.5746 6.128 89.8306 7.048 89.8306 8.072C89.8306 8.968 89.6146 9.848 89.1826 10.712C88.7666 11.56 88.1346 12.312 87.2866 12.968C86.4386 13.624 85.4066 14.112 84.1906 14.432C84.9586 14.64 85.5506 14.976 85.9666 15.44C86.3826 15.904 86.7986 16.584 87.2146 17.48C87.6626 18.44 88.1026 19.144 88.5346 19.592C88.9826 20.04 89.4946 20.264 90.0706 20.264C90.5826 20.264 91.0706 20.096 91.5346 19.76C91.9986 19.408 92.5826 18.816 93.2866 17.984C93.4786 17.76 93.6946 17.648 93.9346 17.648ZM77.7586 15.44C77.2146 15.44 76.8386 15.312 76.6306 15.056C76.4386 14.8 76.3426 14.512 76.3426 14.192C76.3426 13.808 76.4626 13.504 76.7026 13.28C76.9586 13.056 77.2466 12.944 77.5666 12.944H78.1666C78.4226 11.376 78.6626 10.024 78.8866 8.888C79.0946 7.848 79.7666 7.328 80.9026 7.328C81.8146 7.328 82.2706 7.736 82.2706 8.552C82.2706 8.728 82.2626 8.864 82.2466 8.96L81.5266 12.944C82.3906 12.896 83.1746 12.688 83.8786 12.32C84.5986 11.952 85.1666 11.44 85.5826 10.784C86.0146 10.128 86.2306 9.384 86.2306 8.552C86.2306 7.544 85.8866 6.752 85.1986 6.176C84.5106 5.6 83.5026 5.312 82.1746 5.312C80.6066 5.312 79.2306 5.704 78.0466 6.488C76.8786 7.256 75.9666 8.408 75.3106 9.944C74.6546 11.464 74.3266 13.32 74.3266 15.512C74.3266 16.536 74.4306 17.416 74.6386 18.152C74.8466 18.888 75.1026 19.44 75.4066 19.808C75.7106 20.176 75.9986 20.36 76.2706 20.36C76.4786 20.36 76.6466 20.256 76.7746 20.048C76.9186 19.84 77.0306 19.504 77.1106 19.04L77.7586 15.44ZM95.1431 23.12C94.1511 23.12 93.3591 22.76 92.7671 22.04C92.1751 21.32 91.8791 20.376 91.8791 19.208C91.8791 17.928 92.1751 16.72 92.7671 15.584C93.3591 14.432 94.1431 13.512 95.1191 12.824C96.1111 12.12 97.1591 11.768 98.2631 11.768C98.6151 11.768 98.8471 11.84 98.9591 11.984C99.0871 12.112 99.1911 12.352 99.2711 12.704C99.6071 12.64 99.9591 12.608 100.327 12.608C101.111 12.608 101.503 12.888 101.503 13.448C101.503 13.784 101.383 14.584 101.143 15.848C100.775 17.688 100.591 18.968 100.591 19.688C100.591 19.928 100.647 20.12 100.759 20.264C100.887 20.408 101.047 20.48 101.239 20.48C101.543 20.48 101.911 20.288 102.343 19.904C102.775 19.504 103.359 18.864 104.095 17.984C104.287 17.76 104.503 17.648 104.743 17.648C104.951 17.648 105.111 17.744 105.223 17.936C105.351 18.128 105.415 18.392 105.415 18.728C105.415 19.368 105.263 19.864 104.959 20.216C104.303 21.032 103.607 21.72 102.871 22.28C102.135 22.84 101.423 23.12 100.735 23.12C100.207 23.12 99.7191 22.944 99.2711 22.592C98.8391 22.224 98.5111 21.728 98.2871 21.104C97.4551 22.448 96.4071 23.12 95.1431 23.12ZM96.0071 20.696C96.3591 20.696 96.6951 20.488 97.0151 20.072C97.3351 19.656 97.5671 19.104 97.7111 18.416L98.5991 14C97.9271 14.016 97.3031 14.272 96.7271 14.768C96.1671 15.248 95.7191 15.888 95.3831 16.688C95.0471 17.488 94.8791 18.336 94.8791 19.232C94.8791 19.728 94.9751 20.096 95.1671 20.336C95.3751 20.576 95.6551 20.696 96.0071 20.696ZM105.169 23.12C104.561 23.12 104.129 22.8 103.873 22.16C103.633 21.52 103.513 20.496 103.513 19.088C103.513 17.008 103.809 15.032 104.401 13.16C104.545 12.696 104.777 12.36 105.097 12.152C105.433 11.928 105.897 11.816 106.489 11.816C106.809 11.816 107.033 11.856 107.161 11.936C107.289 12.016 107.353 12.168 107.353 12.392C107.353 12.648 107.233 13.224 106.993 14.12C106.833 14.76 106.705 15.32 106.609 15.8C106.513 16.264 106.433 16.848 106.369 17.552C106.801 16.304 107.313 15.248 107.905 14.384C108.513 13.52 109.129 12.88 109.753 12.464C110.393 12.032 110.993 11.816 111.553 11.816C112.113 11.816 112.505 11.944 112.729 12.2C112.969 12.456 113.089 12.848 113.089 13.376C113.089 13.888 112.937 14.816 112.633 16.16C112.505 16.736 112.417 17.168 112.369 17.456C113.169 15.488 114.057 14.056 115.033 13.16C116.009 12.264 116.921 11.816 117.769 11.816C118.809 11.816 119.329 12.336 119.329 13.376C119.329 14 119.153 15.128 118.801 16.76C118.497 18.152 118.345 19.072 118.345 19.52C118.345 20.16 118.577 20.48 119.041 20.48C119.361 20.48 119.737 20.288 120.169 19.904C120.617 19.504 121.209 18.864 121.945 17.984C122.137 17.76 122.353 17.648 122.593 17.648C122.801 17.648 122.961 17.744 123.073 17.936C123.201 18.128 123.265 18.392 123.265 18.728C123.265 19.368 123.113 19.864 122.809 20.216C122.121 21.064 121.377 21.76 120.577 22.304C119.793 22.848 118.897 23.12 117.889 23.12C117.073 23.12 116.457 22.888 116.041 22.424C115.625 21.944 115.417 21.256 115.417 20.36C115.417 19.912 115.529 19.112 115.753 17.96C115.961 16.952 116.065 16.256 116.065 15.872C116.065 15.616 115.977 15.488 115.801 15.488C115.593 15.488 115.297 15.76 114.913 16.304C114.529 16.832 114.145 17.536 113.761 18.416C113.377 19.296 113.065 20.224 112.825 21.2C112.649 21.968 112.441 22.48 112.201 22.736C111.977 22.992 111.609 23.12 111.097 23.12C110.569 23.12 110.169 22.872 109.897 22.376C109.641 21.864 109.513 21.248 109.513 20.528C109.513 19.92 109.593 19.04 109.753 17.888C109.881 16.864 109.945 16.192 109.945 15.872C109.945 15.616 109.857 15.488 109.681 15.488C109.441 15.488 109.137 15.776 108.769 16.352C108.401 16.928 108.041 17.664 107.689 18.56C107.353 19.456 107.081 20.336 106.873 21.2C106.697 21.952 106.489 22.464 106.249 22.736C106.025 22.992 105.665 23.12 105.169 23.12ZM124.276 23.12C123.284 23.12 122.492 22.76 121.9 22.04C121.308 21.32 121.012 20.376 121.012 19.208C121.012 17.928 121.308 16.72 121.9 15.584C122.492 14.432 123.276 13.512 124.252 12.824C125.244 12.12 126.292 11.768 127.396 11.768C127.748 11.768 127.98 11.84 128.092 11.984C128.22 12.112 128.324 12.352 128.404 12.704C128.74 12.64 129.092 12.608 129.46 12.608C130.244 12.608 130.636 12.888 130.636 13.448C130.636 13.784 130.516 14.584 130.276 15.848C129.908 17.688 129.724 18.968 129.724 19.688C129.724 19.928 129.78 20.12 129.892 20.264C130.02 20.408 130.18 20.48 130.372 20.48C130.676 20.48 131.044 20.288 131.476 19.904C131.908 19.504 132.492 18.864 133.228 17.984C133.42 17.76 133.636 17.648 133.876 17.648C134.084 17.648 134.244 17.744 134.356 17.936C134.484 18.128 134.548 18.392 134.548 18.728C134.548 19.368 134.396 19.864 134.092 20.216C133.436 21.032 132.74 21.72 132.004 22.28C131.268 22.84 130.556 23.12 129.868 23.12C129.34 23.12 128.852 22.944 128.404 22.592C127.972 22.224 127.644 21.728 127.42 21.104C126.588 22.448 125.54 23.12 124.276 23.12ZM125.14 20.696C125.492 20.696 125.828 20.488 126.148 20.072C126.468 19.656 126.7 19.104 126.844 18.416L127.732 14C127.06 14.016 126.436 14.272 125.86 14.768C125.3 15.248 124.852 15.888 124.516 16.688C124.18 17.488 124.012 18.336 124.012 19.232C124.012 19.728 124.108 20.096 124.3 20.336C124.508 20.576 124.788 20.696 125.14 20.696ZM146.229 17.648C146.437 17.648 146.597 17.744 146.709 17.936C146.837 18.128 146.901 18.392 146.901 18.728C146.901 19.368 146.749 19.864 146.445 20.216C145.789 21.016 145.069 21.704 144.285 22.28C143.501 22.84 142.725 23.12 141.957 23.12C140.741 23.12 139.813 22.408 139.173 20.984C138.501 21.832 137.909 22.4 137.397 22.688C136.901 22.976 136.317 23.12 135.645 23.12C134.669 23.12 133.861 22.76 133.221 22.04C132.597 21.304 132.285 20.352 132.285 19.184C132.285 17.904 132.557 16.72 133.101 15.632C133.645 14.528 134.389 13.632 135.333 12.944C136.293 12.24 137.365 11.824 138.549 11.696C138.853 8.592 139.429 5.944 140.277 3.752C141.141 1.544 142.269 0.439999 143.661 0.439999C144.349 0.439999 144.917 0.751999 145.365 1.376C145.829 2 146.061 2.944 146.061 4.208C146.061 6 145.621 8.096 144.741 10.496C143.861 12.896 142.685 15.36 141.213 17.888C141.277 18.816 141.413 19.48 141.621 19.88C141.845 20.28 142.125 20.48 142.461 20.48C142.893 20.48 143.333 20.288 143.781 19.904C144.229 19.52 144.829 18.88 145.581 17.984C145.773 17.76 145.989 17.648 146.229 17.648ZM143.397 2.792C143.093 2.792 142.789 3.336 142.485 4.424C142.181 5.496 141.917 6.904 141.693 8.648C141.485 10.392 141.333 12.216 141.237 14.12C143.029 10.216 143.925 7.08 143.925 4.712C143.925 4.104 143.869 3.632 143.757 3.296C143.661 2.96 143.541 2.792 143.397 2.792ZM136.485 20.696C136.789 20.696 137.093 20.576 137.397 20.336C137.701 20.08 138.085 19.616 138.549 18.944C138.389 18.08 138.309 17.112 138.309 16.04C138.309 15.656 138.325 15.032 138.357 14.168C137.477 14.44 136.741 15.032 136.149 15.944C135.573 16.84 135.285 17.84 135.285 18.944C135.285 20.112 135.685 20.696 136.485 20.696ZM147.667 23.12C146.675 23.12 145.883 22.76 145.291 22.04C144.699 21.32 144.403 20.376 144.403 19.208C144.403 17.928 144.699 16.72 145.291 15.584C145.883 14.432 146.667 13.512 147.643 12.824C148.635 12.12 149.683 11.768 150.787 11.768C151.139 11.768 151.371 11.84 151.483 11.984C151.611 12.112 151.715 12.352 151.795 12.704C152.131 12.64 152.483 12.608 152.851 12.608C153.635 12.608 154.027 12.888 154.027 13.448C154.027 13.784 153.907 14.584 153.667 15.848C153.299 17.688 153.115 18.968 153.115 19.688C153.115 19.928 153.171 20.12 153.283 20.264C153.411 20.408 153.571 20.48 153.763 20.48C154.067 20.48 154.435 20.288 154.867 19.904C155.299 19.504 155.883 18.864 156.619 17.984C156.811 17.76 157.027 17.648 157.267 17.648C157.475 17.648 157.635 17.744 157.747 17.936C157.875 18.128 157.939 18.392 157.939 18.728C157.939 19.368 157.787 19.864 157.483 20.216C156.827 21.032 156.131 21.72 155.395 22.28C154.659 22.84 153.947 23.12 153.259 23.12C152.731 23.12 152.243 22.944 151.795 22.592C151.363 22.224 151.035 21.728 150.811 21.104C149.979 22.448 148.931 23.12 147.667 23.12ZM148.531 20.696C148.883 20.696 149.219 20.488 149.539 20.072C149.859 19.656 150.091 19.104 150.235 18.416L151.123 14C150.451 14.016 149.827 14.272 149.251 14.768C148.691 15.248 148.243 15.888 147.907 16.688C147.571 17.488 147.403 18.336 147.403 19.232C147.403 19.728 147.499 20.096 147.691 20.336C147.899 20.576 148.179 20.696 148.531 20.696ZM157.692 23.12C157.084 23.12 156.652 22.8 156.396 22.16C156.156 21.52 156.036 20.496 156.036 19.088C156.036 17.008 156.332 15.032 156.924 13.16C157.068 12.696 157.3 12.36 157.62 12.152C157.956 11.928 158.42 11.816 159.012 11.816C159.332 11.816 159.556 11.856 159.684 11.936C159.812 12.016 159.876 12.168 159.876 12.392C159.876 12.648 159.756 13.224 159.516 14.12C159.356 14.76 159.228 15.32 159.132 15.8C159.036 16.28 158.956 16.872 158.892 17.576C159.42 16.2 160.012 15.08 160.668 14.216C161.324 13.352 161.964 12.736 162.588 12.368C163.228 12 163.812 11.816 164.34 11.816C165.38 11.816 165.9 12.336 165.9 13.376C165.9 14 165.724 15.128 165.372 16.76C165.068 18.152 164.916 19.072 164.916 19.52C164.916 20.16 165.148 20.48 165.612 20.48C165.932 20.48 166.308 20.288 166.74 19.904C167.188 19.504 167.78 18.864 168.516 17.984C168.708 17.76 168.924 17.648 169.164 17.648C169.372 17.648 169.532 17.744 169.644 17.936C169.772 18.128 169.836 18.392 169.836 18.728C169.836 19.368 169.684 19.864 169.38 20.216C168.692 21.064 167.948 21.76 167.148 22.304C166.364 22.848 165.468 23.12 164.46 23.12C163.644 23.12 163.028 22.888 162.612 22.424C162.196 21.944 161.988 21.256 161.988 20.36C161.988 19.912 162.1 19.112 162.324 17.96C162.532 16.952 162.636 16.256 162.636 15.872C162.636 15.616 162.548 15.488 162.372 15.488C162.164 15.488 161.868 15.76 161.484 16.304C161.116 16.832 160.732 17.536 160.332 18.416C159.948 19.296 159.636 20.224 159.396 21.2C159.22 21.952 159.012 22.464 158.772 22.736C158.548 22.992 158.188 23.12 157.692 23.12ZM178.598 17.648C178.806 17.648 178.966 17.744 179.078 17.936C179.206 18.128 179.27 18.392 179.27 18.728C179.27 19.368 179.118 19.864 178.814 20.216C178.126 21.064 177.374 21.76 176.558 22.304C175.742 22.848 174.806 23.12 173.75 23.12C170.486 23.12 168.854 20.824 168.854 16.232C168.854 15.528 168.878 14.816 168.926 14.096H167.99C167.51 14.096 167.182 14.008 167.006 13.832C166.846 13.656 166.766 13.376 166.766 12.992C166.766 12.096 167.126 11.648 167.846 11.648H169.214C169.486 9.888 169.902 8.28 170.462 6.824C171.022 5.368 171.694 4.208 172.478 3.344C173.278 2.48 174.134 2.048 175.046 2.048C175.718 2.048 176.246 2.344 176.63 2.936C177.014 3.528 177.206 4.272 177.206 5.168C177.206 7.648 176.166 9.808 174.086 11.648H176.774C177.03 11.648 177.214 11.704 177.326 11.816C177.438 11.928 177.494 12.136 177.494 12.44C177.494 13.544 176.59 14.096 174.782 14.096H171.854C171.822 14.896 171.806 15.52 171.806 15.968C171.806 17.632 171.998 18.8 172.382 19.472C172.782 20.144 173.406 20.48 174.254 20.48C174.942 20.48 175.55 20.272 176.078 19.856C176.606 19.44 177.23 18.816 177.95 17.984C178.142 17.76 178.358 17.648 178.598 17.648ZM174.398 4.352C174.158 4.352 173.886 4.656 173.582 5.264C173.294 5.856 173.014 6.688 172.742 7.76C172.486 8.816 172.27 9.992 172.094 11.288C173.038 10.472 173.742 9.56 174.206 8.552C174.686 7.528 174.926 6.6 174.926 5.768C174.926 4.824 174.75 4.352 174.398 4.352ZM180.628 10.232C179.956 10.232 179.452 10.08 179.116 9.776C178.78 9.456 178.612 9.016 178.612 8.456C178.612 7.896 178.828 7.432 179.26 7.064C179.708 6.68 180.26 6.488 180.916 6.488C181.508 6.488 181.988 6.632 182.356 6.92C182.724 7.208 182.908 7.616 182.908 8.144C182.908 8.784 182.7 9.296 182.284 9.68C181.868 10.048 181.316 10.232 180.628 10.232ZM178.324 23.12C177.812 23.12 177.46 23.016 177.268 22.808C177.076 22.6 176.98 22.272 176.98 21.824C176.98 21.696 176.996 21.472 177.028 21.152C177.284 18.224 177.708 15.56 178.3 13.16C178.428 12.664 178.636 12.32 178.924 12.128C179.228 11.92 179.708 11.816 180.364 11.816C181.052 11.816 181.396 12.096 181.396 12.656C181.396 12.736 181.38 12.888 181.348 13.112C180.628 16.536 180.196 19.408 180.052 21.728C180.02 22.24 179.868 22.6 179.596 22.808C179.324 23.016 178.9 23.12 178.324 23.12Z" fill="white"/>
</svg>
